<?xml version="1.0" encoding="utf-8"?>
<!-- Generator: Adobe Illustrator 25.0.1, SVG Export Plug-In . SVG Version: 6.00 Build 0)  -->
<svg version="1.1" id="Layer_1" xmlns="http://www.w3.org/2000/svg" xmlns:xlink="http://www.w3.org/1999/xlink" x="0px" y="0px"
	 viewBox="0 0 50 50" style="enable-background:new 0 0 50 50;" xml:space="preserve">
<style type="text/css">
	.st0{fill:#FFFFFF;}
</style>
<path class="st0" d="M9,4C6.3,4,4,6.3,4,9v32c0,2.7,2.3,5,5,5h32c2.7,0,5-2.3,5-5V9c0-2.7-2.3-5-5-5H9z M9,6h6.6
	C12,9.7,10,14.5,10,19.5c0,5.2,2.1,10.1,5.9,13.8c0.1,0.2,0.2,1.2-0.2,2.4c-0.3,0.8-0.9,1.7-2,2.1c-0.4,0.1-0.7,0.6-0.7,1
	s0.4,0.8,0.8,0.9c2.9,0.6,4.7-0.3,6.2-1c1.4-0.6,2.2-1,3.6-0.5c2.8,1.1,5.8,1.7,8.9,1.7c4.1,0,8-1,11.5-2.9V41c0,1.7-1.3,3-3,3H9
	c-1.7,0-3-1.3-3-3V9C6,7.3,7.3,6,9,6z M33,15c0.5,0,1,0.4,1,1v9c0,0.5-0.5,1-1,1s-1-0.5-1-1v-9C32,15.4,32.5,15,33,15z M18,16h5
	c0.4,0,0.7,0.2,0.9,0.5c0.2,0.3,0.2,0.7,0,1l-4,6.5H23c0.5,0,1,0.5,1,1s-0.5,1-1,1h-5c-0.4,0-0.7-0.2-0.9-0.5c-0.2-0.3-0.2-0.7,0-1
	l4-6.5H18c-0.5,0-1-0.5-1-1S17.5,16,18,16z M27.5,19c0.6,0,1.2,0.2,1.7,0.4c0.2-0.3,0.5-0.4,0.8-0.4c0.5,0,1,0.5,1,1v5
	c0,0.5-0.5,1-1,1c-0.4,0-0.6-0.2-0.8-0.4c-0.5,0.3-1.1,0.4-1.7,0.4c-1.9,0-3.5-1.6-3.5-3.5S25.6,19,27.5,19z M38.5,19
	c1.9,0,3.5,1.6,3.5,3.5S40.4,26,38.5,26S35,24.4,35,22.5S36.6,19,38.5,19z M27.5,21c-0.1,0-0.2,0-0.3,0c-0.2,0-0.4,0.1-0.5,0.2
	c-0.2,0.1-0.3,0.2-0.4,0.4c-0.1,0.2-0.2,0.3-0.2,0.5c0,0.1,0,0.2,0,0.3s0,0.2,0,0.3s0,0.2,0.1,0.3s0.1,0.2,0.1,0.3s0.1,0.2,0.2,0.2
	s0.1,0.1,0.2,0.2c0.2,0.1,0.3,0.2,0.5,0.2c0.1,0,0.2,0,0.3,0s0.2,0,0.3,0c0.7-0.1,1.2-0.7,1.2-1.5C29,21.7,28.3,21,27.5,21z
	 M38.5,21c-0.1,0-0.2,0-0.3,0s-0.2,0-0.3,0.1c-0.1,0-0.2,0.1-0.3,0.1s-0.2,0.1-0.2,0.2c-0.1,0.1-0.2,0.3-0.3,0.5
	c0,0.1-0.1,0.2-0.1,0.3s0,0.2,0,0.3s0,0.2,0,0.3s0,0.2,0.1,0.3s0.1,0.2,0.1,0.3s0.1,0.2,0.2,0.2s0.1,0.1,0.2,0.2s0.2,0.1,0.3,0.1
	c0.1,0,0.2,0.1,0.3,0.1s0.2,0,0.3,0s0.2,0,0.3,0c0.7-0.1,1.2-0.7,1.2-1.5C40,21.7,39.3,21,38.5,21z"/>
</svg>
